<?xml version="1.0" encoding="iso-8859-1"?>
<!-- Generator: Adobe Illustrator 19.0.0, SVG Export Plug-In . SVG Version: 6.00 Build 0)  -->
<svg version="1.1" id="Capa_1" xmlns="http://www.w3.org/2000/svg" xmlns:xlink="http://www.w3.org/1999/xlink" x="0px" y="0px"
	 viewBox="0 0 512.034 512.034" style="enable-background:new 0 0 512.034 512.034;" xml:space="preserve">
<g transform="translate(-1 -1)">
	<g>
		<path style="fill:#4C8056;" d="M503.262,143.163l-54.298,7.757l44.476-44.476c3.234-3.348,3.188-8.671-0.104-11.962
			c-3.292-3.292-8.614-3.338-11.962-0.104l-43.281,43.281l14.848-51.977c0.969-2.971,0.236-6.234-1.91-8.505
			s-5.362-3.189-8.383-2.39c-3.021,0.798-5.364,3.184-6.108,6.219l-17.067,59.733c-1.196,4.273,1.114,8.743,5.291,10.24
			l-11.657,11.657c-2.218,2.143-3.108,5.315-2.327,8.299c0.781,2.984,3.111,5.314,6.094,6.094c2.983,0.781,6.156-0.109,8.299-2.327
			l11.682-11.682c1.173,3.36,4.327,5.623,7.885,5.658c0.408,0.001,0.816-0.028,1.22-0.085l59.733-8.533
			c3.018-0.433,5.576-2.443,6.71-5.273c1.134-2.83,0.672-6.051-1.212-8.448c-1.884-2.397-4.904-3.608-7.922-3.175H503.262z"/>
		<path style="fill:#4C8056;" d="M89.25,150.988c4.177-1.497,6.487-5.967,5.291-10.24L77.474,81.015
			c-0.744-3.035-3.087-5.421-6.108-6.219c-3.021-0.798-6.237,0.119-8.383,2.39s-2.879,5.535-1.91,8.505l14.848,51.977L32.64,94.378
			c-3.348-3.234-8.671-3.188-11.962,0.104s-3.338,8.614-0.104,11.962L65.05,150.92l-54.298-7.757
			c-4.666-0.669-8.991,2.571-9.66,7.236s2.571,8.991,7.236,9.66l59.733,8.533c0.401,0.057,0.806,0.086,1.212,0.085
			c3.553-0.037,6.702-2.296,7.876-5.649l3.149,3.149c3.348,3.234,8.671,3.188,11.962-0.104c3.292-3.292,3.338-8.614,0.104-11.962
			L89.25,150.988z"/>
	</g>
	<path style="fill:#2C3E50;" d="M321.092,54.246c9.02-5.245,13.955-15.441,12.471-25.769c-1.483-10.329-9.087-18.724-19.219-21.219
		s-20.764,1.409-26.874,9.868h-60.928c-6.11-8.459-16.742-12.363-26.874-9.868c-10.132,2.495-17.736,10.89-19.219,21.219
		s3.451,20.524,12.471,25.769H321.092z"/>
	<g>
		<path style="fill:#4FBA6F;" d="M107.674,466.022c2.687-1.508,4.32-4.38,4.241-7.46c-0.079-3.081-1.856-5.865-4.617-7.234
			c2.632-1.894,3.963-5.117,3.434-8.316c-0.528-3.199-2.825-5.823-5.926-6.77l-92.774-28.262c-2.918-0.89-6.088-0.156-8.318,1.925
			c-2.23,2.082-3.18,5.195-2.492,8.166s2.909,5.351,5.826,6.241l84.582,25.762l-81.92-1.391c-2.288-0.096-4.514,0.751-6.16,2.343
			s-2.565,3.79-2.544,6.079c-0.039,2.263,0.823,4.449,2.396,6.077c1.573,1.628,3.729,2.563,5.992,2.602l84.335,1.434L7.296,490.752
			c-4.128,1.122-6.788,5.127-6.22,9.367s4.187,7.405,8.464,7.401c0.758,0.005,1.514-0.096,2.244-0.299l93.867-25.6
			c3.313-0.908,5.759-3.713,6.206-7.119c0.447-3.406-1.191-6.748-4.158-8.48H107.674z"/>
		<path style="fill:#4FBA6F;" d="M181.231,466.235l-5.291,1.109l-81.067,17.067v-51.2l78.933,15.787
			c3.792,0.767,6.594,3.989,6.827,7.851L181.231,466.235z"/>
		<path style="fill:#4FBA6F;" d="M406.34,466.022c-2.687-1.508-4.32-4.38-4.241-7.46c0.079-3.081,1.856-5.865,4.617-7.234
			c-2.632-1.894-3.963-5.117-3.434-8.316c0.528-3.199,2.825-5.823,5.926-6.77l92.8-28.262c4.51-1.374,9.28,1.169,10.654,5.679
			c1.374,4.51-1.169,9.28-5.679,10.654L422.4,450.073l81.92-1.391c2.284-0.089,4.505,0.761,6.146,2.352
			c1.641,1.591,2.559,3.784,2.541,6.07c0.039,2.263-0.823,4.449-2.396,6.077c-1.573,1.628-3.729,2.563-5.992,2.602l-84.335,1.434
			l86.434,23.569c4.067,1.169,6.663,5.142,6.1,9.336c-0.562,4.194-4.113,7.342-8.345,7.398c-0.758,0.006-1.514-0.095-2.244-0.299
			l-93.867-25.6c-3.313-0.908-5.759-3.713-6.206-7.119c-0.447-3.406,1.191-6.748,4.158-8.48H406.34z"/>
		<path style="fill:#4FBA6F;" d="M332.783,466.235l5.291,1.109l81.067,17.067v-51.2l-78.933,15.787
			c-3.792,0.767-6.594,3.989-6.827,7.851L332.783,466.235z"/>
	</g>
	<g>
		<path style="fill:#4C8056;" d="M326.98,307.089l85.504,65.365c6.596,5.158,8.476,14.34,4.437,21.675
			c-0.822,1.151-1.766,2.209-2.816,3.157c-2.219,2.219-4.437,4.437-6.656,6.571c-12.288,12.117-24.405,24.235-36.608,36.352
			l-23.552,23.296c-2.429,2.47-5.752,3.854-9.216,3.84c-3.612,0.001-7.067-1.48-9.557-4.096c-4.784-4.988-5.288-12.693-1.195-18.261
			l35.413-49.408c1.464-2.041,1.967-4.619,1.377-7.061c-0.59-2.442-2.214-4.506-4.449-5.654l-59.819-30.549H214.17l-59.819,30.549
			c-2.235,1.148-3.859,3.212-4.449,5.654s-0.087,5.02,1.377,7.061l35.413,49.408c4.093,5.568,3.589,13.274-1.195,18.261
			c-2.491,2.616-5.945,4.097-9.557,4.096c-3.464,0.014-6.787-1.37-9.216-3.84l-23.552-23.296
			c-12.203-12.117-24.32-24.235-36.608-36.352c-2.219-2.133-4.437-4.352-6.656-6.571c-1.05-0.948-1.994-2.007-2.816-3.157
			c-4.038-7.335-2.159-16.517,4.437-21.675l85.504-65.365H326.98z"/>
		<path style="fill:#4C8056;" d="M453.769,160.145l-57.173,47.104c-9.285,7.527-22.285,8.447-32.538,2.304l-59.827-35.84
			c-2.678-10.005-4.207-20.283-4.557-30.635c0.09-6.544,0.635-13.073,1.63-19.541l74.513,42.069
			c3.255,1.87,7.308,1.636,10.325-0.597l40.431-30.464L453.769,160.145z"/>
		<path style="fill:#4C8056;" d="M214.34,143.078c-0.341,10.351-1.862,20.628-4.531,30.635l-59.827,35.84
			c-10.253,6.143-23.253,5.223-32.538-2.304l-57.199-47.104l27.196-25.6l40.431,30.464c3.017,2.233,7.071,2.467,10.325,0.597
			l74.513-42.069C213.706,130.005,214.25,136.534,214.34,143.078z"/>
	</g>
	<path style="fill:#4FBA6F;" d="M333.807,271.078c0,42.667-34.731,102.4-76.8,102.4s-76.8-59.733-76.8-102.4
		c0-26.027,14.08-65.024,21.333-97.365c2.515-10.029,3.946-20.3,4.267-30.635c-0.084-6.54-0.597-13.068-1.536-19.541
		c-0.256-2.389-0.597-4.864-0.939-7.253c-1.473-8.559-4.235-16.845-8.192-24.576c-4.517-8.203-6.562-17.539-5.888-26.88
		c1.135-5.805,3.491-11.303,6.912-16.128c13.227-20.48,35.243-41.045,60.843-42.155c25.6,1.109,47.616,21.675,60.843,42.155
		c3.421,4.825,5.777,10.323,6.912,16.128c0.674,9.341-1.371,18.677-5.888,26.88c-3.957,7.731-6.719,16.017-8.192,24.576
		c-0.341,2.389-0.683,4.864-0.939,7.253c-0.939,6.473-1.452,13.001-1.536,19.541c0.321,10.335,1.751,20.605,4.267,30.635
		C319.727,206.054,333.807,245.051,333.807,271.078z"/>
	<g>
		<ellipse style="fill:#4C8056;" cx="244.207" cy="275.345" rx="29.867" ry="38.4"/>
		<ellipse style="fill:#4C8056;" cx="259.396" cy="160.145" rx="19.908" ry="25.6"/>
		
			<ellipse transform="matrix(-0.7573 -0.6531 0.6531 -0.7573 396.0109 279.3906)" style="fill:#4C8056;" cx="249.919" cy="66.113" rx="19.285" ry="24.798"/>
	</g>
</g>
<g>
</g>
<g>
</g>
<g>
</g>
<g>
</g>
<g>
</g>
<g>
</g>
<g>
</g>
<g>
</g>
<g>
</g>
<g>
</g>
<g>
</g>
<g>
</g>
<g>
</g>
<g>
</g>
<g>
</g>
</svg>
