<svg id="Capa_1" enable-background="new 0 0 512 512" height="512" viewBox="0 0 512 512" width="512" xmlns="http://www.w3.org/2000/svg"><g><g><path clip-rule="evenodd" d="m400.102 304.361c44.588 48.613 119.295-35.772 101.602-75.774-8.136-18.463-6.184 6.716-54.411-2.249-39.025-7.249-80.773 39.648-48.108 76.988.325.354.621.68.917 1.035z" fill="#ccf49f" fill-rule="evenodd"/></g><g><path clip-rule="evenodd" d="m420.399 317.468c43.522 12.604 96.513-54.53 81.305-88.882-5.503-12.486-6.391-5.03-21.243-1.657.178.355.325.74.503 1.154 12.84 29.026-22.931 81.367-60.565 89.385z" fill="#b3e59f" fill-rule="evenodd"/></g><g><path d="m379.042 358.66c-.593 0-1.194-.068-1.796-.212-4.151-.988-6.715-5.154-5.726-9.306 11.398-47.872 35.742-65.409 61.516-83.975 2.976-2.144 6.053-4.361 9.132-6.637 3.432-2.537 8.27-1.811 10.806 1.619 2.537 3.432 1.812 8.27-1.619 10.806-3.156 2.333-6.273 4.578-9.287 6.749-25.393 18.292-45.45 32.741-55.516 75.017-.845 3.55-4.014 5.939-7.51 5.939z" fill="#b3e59f"/></g><g><path clip-rule="evenodd" d="m438.713 162.902c11.273 0 24.824-14.025 25.119-25.386l-4.468-6.095c-11.687-16.096-9.912-33.316-29.853-33.316l-48.404-4.054-92.785 23.789-15.681 18.966 15.681 26.096z" fill="#fdd76f" fill-rule="evenodd"/></g><g><path clip-rule="evenodd" d="m403.12 117.839c-29.232-15.711-21.48-52.43-3.669-70.567l-111.158-19.172-28.167 49.915 28.196 39.825h114.798z" fill="#fde588" fill-rule="evenodd"/></g><g><path clip-rule="evenodd" d="m190.951 356.968c-8.61 4.527-18.492 7.131-29.765 7.131h-20.296-2.959l-5.119 31.393h236.814 127.106c8.403 0 15.267-6.864 15.267-15.267v-13.995c0-8.403-6.864-15.297-15.267-15.297h-117.696-178.706c-2.958 2.277-6.065 4.289-9.379 6.035z" fill="#ce9875" fill-rule="evenodd"/></g><g><path clip-rule="evenodd" d="m66.568 376.733-16.717 102.581c-5.266 32.192 32.96 30.978 36.688 8.285l5.148-31.629c-6.272 38.435 30.268 38.109 34.498 12.19l3.462-21.067c-4.113 25.15 32.457 24.647 37.191-4.349l7.722-47.252 5.119-31.393c-79.293-34.351-112.667 17.546-109.442 13.167-1.243-.149-2.456-.326-3.669-.533z" fill="#7e707d" fill-rule="evenodd"/></g><g><path clip-rule="evenodd" d="m15.663 346.531c-15.428-18.652-22.06-40.484-7.769-46.347 6.119-2.503 12.362-5.223 18.615-8.2 5.759-2.74 11.507-5.717 17.163-8.952 27.835-15.999 53.239-38.652 64.025-73.709 7.098-23.076 19.202-36.54 32.924-42.278 38.914-16.33 90.908 29.282 79.2 93.94-74.321 146.015-195.052 96.555-204.158 85.546z" fill="#7e707d" fill-rule="evenodd"/></g><g><path clip-rule="evenodd" d="m284.565 265.394c3.758-73.171-15.178-130.867-36.717-142.377-50.505-26.954-12.042-87.669 40.445-94.918-55.594-43.612-146.722-17.634-146.722 87.166v42.636l-.947 9.143c10.592 29.055 34.794 180.367 2.959 197.055h59.381c11.273 0 21.125-2.604 29.735-7.131 3.314-1.746 6.42-3.758 9.379-6.036 24.616-18.906 36.983-54.944 42.487-85.538z" fill="#7e707d" fill-rule="evenodd"/></g><g><path clip-rule="evenodd" d="m288.322 117.839-.03-89.74c-78.938-14.971-112.224 75.745-61.719 102.699 21.539 11.51 61.748 61.424 57.991 134.595 2.722-15.208 3.758-29.055 3.758-38.819v-63.673-5-33.405z" fill="#eff6ff" fill-rule="evenodd"/></g><g><path clip-rule="evenodd" d="m491.496 125.029c0-62.282-42.487-69.235-80.92-75.863l-11.125-1.894c-17.811 18.137-25.563 54.856 3.669 70.567h14.438c19.971 0 30.12-2.515 41.806 13.581l4.468 6.095.858 1.213c3.403 4.646 26.806 11.836 26.806-13.699z" fill="#7e707d" fill-rule="evenodd"/></g><g><path clip-rule="evenodd" d="m145.565 142.279c-1.331.562-2.663 1.184-3.994 1.894v13.729l-.947 9.143c46.392-19.469 111.395 49.116 64.825 133.056-18.107 32.635-40.061 52.548-61.866 63.998h39.084c119.739-95.332 38.937-253.686-37.102-221.82z" fill="#6a5c6b" fill-rule="evenodd"/></g><g><path clip-rule="evenodd" d="m453.891 350.932c8.373.059 15.237 6.894 15.237 15.297v13.995c0 8.403-6.894 15.267-15.296 15.267h42.901c8.403 0 15.267-6.864 15.267-15.267v-13.995c0-8.403-6.864-15.297-15.267-15.297h-42.812z" fill="#c6865c" fill-rule="evenodd"/></g><g><path clip-rule="evenodd" d="m398.09 48.722c31.333 7.012 59.677 20.978 59.677 71.839 0 2.988-.325 5.503-.888 7.663.828.976 1.657 2.042 2.485 3.195l4.468 6.095.858 1.213c3.402 4.645 26.806 11.835 26.806-13.699 0-62.282-42.487-69.235-80.92-75.863l-11.125-1.894c-.473.475-.917.948-1.361 1.451z" fill="#6a5c6b" fill-rule="evenodd"/></g><g><path d="m255.185 83.492c-4.268 0-7.726-3.459-7.726-7.726v-3.166c0-4.267 3.459-7.726 7.726-7.726 4.268 0 7.726 3.459 7.726 7.726v3.166c0 4.267-3.459 7.726-7.726 7.726z" fill="#6a5c6b"/></g><g><path d="m92.466 423.131c-.37 0-.744-.027-1.121-.081-4.223-.613-7.149-4.534-6.535-8.757l5.503-37.873c.613-4.223 4.539-7.149 8.756-6.535 4.223.613 7.149 4.534 6.535 8.757l-5.503 37.873c-.557 3.846-3.86 6.616-7.635 6.616z" fill="#6a5c6b"/></g><g><path d="m129.214 413.93c-.368 0-.739-.026-1.115-.08-4.223-.61-7.152-4.528-6.542-8.751l5.474-37.903c.61-4.224 4.523-7.154 8.751-6.542 4.223.61 7.152 4.528 6.542 8.751l-5.474 37.903c-.555 3.847-3.859 6.622-7.636 6.622z" fill="#6a5c6b"/></g><g><path d="m175.473 236.118c-15.648 22.612-38.354 41.269-63.943 52.508-17.039 7.489-34.665 11.301-51.571 11.301-9.89 0-19.542-1.308-28.67-3.946-2.174-.618-3.863-2.112-4.78-3.997 5.759-2.74 11.507-5.717 17.163-8.952 41.351 7.5 91.181-15.36 119.088-55.702 2.431-3.513 7.242-4.389 10.755-1.957 3.503 2.421 4.379 7.232 1.958 10.745z" fill="#6a5c6b"/></g><g><path clip-rule="evenodd" d="m125.446 371.792c5.977-1.982 12.042-4.497 18.137-7.693 21.806-11.451 43.759-31.363 61.866-63.998 7.515-13.522 12.101-26.659 14.379-39.115-44.795 64.738-130.715 106.694-204.15 85.538 9.083 11.007 21.273 20.919 33.995 25.771 6.361 2.426 13.314 4.054 20.563 4.971 13.788 1.775 28.611.917 42.428-2.042 3.314-.71 6.539-1.539 9.705-2.485 1.035-.296 2.041-.622 3.077-.947z" fill="#eff6ff" fill-rule="evenodd"/></g></g></svg>