<svg id="Capa_1" enable-background="new 0 0 512 512" height="512" viewBox="0 0 512 512" width="512" xmlns="http://www.w3.org/2000/svg" xmlns:xlink="http://www.w3.org/1999/xlink"><radialGradient id="SVGID_1_" cx="355.591" cy="430.8" gradientTransform="matrix(.931 0 0 .112 -75.044 320.919)" gradientUnits="userSpaceOnUse" r="230.527"><stop offset="0" stop-color="#ffc3ac"/><stop offset=".1527" stop-color="#ffcbb8"/><stop offset=".4962" stop-color="#ffdace"/><stop offset=".8982" stop-color="#fff"/></radialGradient><radialGradient id="SVGID_2_" cx="39.957" cy="111.671" gradientUnits="userSpaceOnUse" r="81.45"><stop offset="0" stop-color="#beb9dd"/><stop offset=".2163" stop-color="#807b8f"/><stop offset=".3829" stop-color="#55505a"/><stop offset=".4636" stop-color="#454045"/></radialGradient><radialGradient id="SVGID_3_" cx="73.674" cy="146.416" gradientUnits="userSpaceOnUse" r="27.727"><stop offset="0" stop-color="#7a635e"/><stop offset=".0011" stop-color="#7a635e"/><stop offset=".26" stop-color="#9d8079"/><stop offset=".5041" stop-color="#b6948d"/><stop offset=".7254" stop-color="#c6a199"/><stop offset=".9037" stop-color="#cba59d"/></radialGradient><radialGradient id="SVGID_4_" cx="39.054" cy="139.99" gradientTransform="matrix(-.936 .352 -.236 -.626 108.607 213.891)" gradientUnits="userSpaceOnUse" r="45.686"><stop offset="0" stop-color="#fff9e2"/><stop offset=".1775" stop-color="#fbe7cc"/><stop offset=".5476" stop-color="#f0ba93"/><stop offset=".9955" stop-color="#e27d47"/></radialGradient><radialGradient id="SVGID_5_" cx="21.49" cy="158.571" gradientTransform="matrix(.707 -.707 .553 .553 -81.441 86.031)" gradientUnits="userSpaceOnUse" r="33.647"><stop offset=".1096" stop-color="#fff9e2"/><stop offset=".1906" stop-color="#fff0d9"/><stop offset=".6064" stop-color="#ffc3ac"/><stop offset=".8372" stop-color="#f1b294"/><stop offset="1" stop-color="#eaaa89"/></radialGradient><linearGradient id="lg1"><stop offset="0" stop-color="#a2847d"/><stop offset=".5992" stop-color="#d5b8b2"/><stop offset=".9037" stop-color="#eacec8"/></linearGradient><radialGradient id="SVGID_6_" cx="518.758" cy="350.81" gradientUnits="userSpaceOnUse" r="89.57" xlink:href="#lg1"/><radialGradient id="SVGID_7_" cx="343.762" cy="234.162" gradientTransform="matrix(1 0 0 .97 0 7.076)" gradientUnits="userSpaceOnUse" r="94.205"><stop offset="0" stop-color="#b94029"/><stop offset=".2222" stop-color="#c7482b"/><stop offset=".6496" stop-color="#dd542e"/></radialGradient><radialGradient id="SVGID_8_" cx="158.876" cy="225.186" gradientTransform="matrix(.905 .426 -.329 .697 89.21 .384)" gradientUnits="userSpaceOnUse" r="152.423"><stop offset="0" stop-color="#b94029"/><stop offset=".1851" stop-color="#be4129"/><stop offset=".4071" stop-color="#cd4529"/><stop offset=".4227" stop-color="#ce4529"/><stop offset=".4851" stop-color="#c9452b"/><stop offset=".5551" stop-color="#bc4630"/><stop offset=".6288" stop-color="#a54838"/><stop offset=".7051" stop-color="#864b44"/><stop offset=".7825" stop-color="#5e4e53"/><stop offset=".7999" stop-color="#544f57"/></radialGradient><linearGradient id="lg2"><stop offset=".1359" stop-color="#454045"/><stop offset=".336" stop-color="#534d53"/><stop offset=".5328" stop-color="#665e66"/></linearGradient><linearGradient id="SVGID_9_" gradientUnits="userSpaceOnUse" x1="293.991" x2="315.588" xlink:href="#lg2" y1="328.096" y2="345.855"/><radialGradient id="SVGID_10_" cx="262.667" cy="267.98" gradientTransform="matrix(-.572 -.82 1.176 -.821 97.878 703.343)" gradientUnits="userSpaceOnUse" r="74.347"><stop offset="0" stop-color="#b94029"/><stop offset=".424" stop-color="#ce4529"/><stop offset=".5305" stop-color="#ca462c"/><stop offset=".6459" stop-color="#bd4933"/><stop offset=".7655" stop-color="#a74e40"/><stop offset=".8872" stop-color="#895652"/><stop offset="1" stop-color="#665e66"/></radialGradient><radialGradient id="SVGID_11_" cx="149.23" cy="357.041" gradientTransform="matrix(.703 -.712 .549 .542 -151.508 269.774)" gradientUnits="userSpaceOnUse" r="16.511"><stop offset="0" stop-color="#8b818e"/><stop offset=".2637" stop-color="#79707c"/><stop offset=".7269" stop-color="#5e5861"/><stop offset="1" stop-color="#544f57"/></radialGradient><linearGradient id="lg3"><stop offset="0" stop-color="#c6c1c8"/><stop offset=".1466" stop-color="#b4aeb6"/><stop offset=".528" stop-color="#8a838b"/><stop offset=".8253" stop-color="#706870"/><stop offset="1" stop-color="#665e66"/></linearGradient><radialGradient id="SVGID_12_" cx="287.864" cy="357.041" gradientTransform="matrix(.703 -.712 .549 .542 -110.289 368.414)" gradientUnits="userSpaceOnUse" r="16.511" xlink:href="#lg3"/><linearGradient id="SVGID_13_" gradientUnits="userSpaceOnUse" x1="333.894" x2="355.49" xlink:href="#lg2" y1="328.096" y2="345.855"/><linearGradient id="SVGID_14_" gradientUnits="userSpaceOnUse" x1="343.722" x2="340.744" y1="318.723" y2="354.295"><stop offset="0" stop-color="#454045"/><stop offset=".3598" stop-color="#5c555c"/><stop offset=".6022" stop-color="#665e66"/><stop offset=".7925" stop-color="#7a707b"/><stop offset="1" stop-color="#8b818e"/><stop offset="1" stop-color="#665e66"/></linearGradient><radialGradient id="SVGID_15_" cx="-13.777" cy="184.783" gradientUnits="userSpaceOnUse" r="84.049"><stop offset=".0236" stop-color="#fbf6ec"/><stop offset=".2255" stop-color="#f8f1e7"/><stop offset=".4526" stop-color="#f0e4da"/><stop offset=".692" stop-color="#e3cdc4"/><stop offset=".9384" stop-color="#d0aea6"/><stop offset="1" stop-color="#cba59d"/></radialGradient><radialGradient id="SVGID_16_" cx="7.534" cy="178.18" gradientTransform="matrix(.762 -.648 .647 .76 -113.5 47.619)" gradientUnits="userSpaceOnUse" r="11.638"><stop offset="0" stop-color="#d0cee7"/><stop offset=".3128" stop-color="#a19dae"/><stop offset=".5922" stop-color="#756e78"/><stop offset="1" stop-color="#665e66"/></radialGradient><radialGradient id="SVGID_17_" cx="211.051" cy="175.579" gradientTransform="matrix(1 0 0 .54 0 80.751)" gradientUnits="userSpaceOnUse" r="178.054"><stop offset="0" stop-color="#e4936b"/><stop offset=".1449" stop-color="#e38d61"/><stop offset=".3814" stop-color="#e27d47"/><stop offset=".5334" stop-color="#e07844"/><stop offset=".7221" stop-color="#db683c"/><stop offset=".9295" stop-color="#d24f2f"/><stop offset="1" stop-color="#ce4529"/></radialGradient><radialGradient id="SVGID_18_" cx="123.799" cy="149.911" gradientTransform="matrix(.821 -.572 .341 .489 -28.887 147.311)" gradientUnits="userSpaceOnUse" r="48.305"><stop offset="0" stop-color="#e27d47"/><stop offset=".7071" stop-color="#df6136"/><stop offset=".9879" stop-color="#dd542e"/></radialGradient><radialGradient id="SVGID_19_" cx="92.364" cy="212.314" gradientTransform="matrix(.713 .701 -.741 .753 183.825 -12.345)" gradientUnits="userSpaceOnUse" r="103.71"><stop offset=".0963" stop-color="#eacec8"/><stop offset=".2913" stop-color="#e6c9c3"/><stop offset=".5106" stop-color="#d9bcb6"/><stop offset=".7417" stop-color="#c3a69f"/><stop offset=".9797" stop-color="#a58780"/><stop offset="1" stop-color="#a2847d"/></radialGradient><radialGradient id="SVGID_20_" cx="134.002" cy="188.573" fx="96.961" fy="188.718" gradientTransform="matrix(.713 .701 -.704 .716 171.258 -40.362)" gradientUnits="userSpaceOnUse" r="37.042"><stop offset="0" stop-color="#a2847d"/><stop offset=".0203" stop-color="#a58780"/><stop offset=".2583" stop-color="#c3a69f"/><stop offset=".4894" stop-color="#d9bcb6"/><stop offset=".7087" stop-color="#e6c9c3"/><stop offset=".9037" stop-color="#eacec8"/></radialGradient><radialGradient id="SVGID_21_" cx="172.124" cy="224.911" gradientTransform="matrix(.905 .426 -.329 .697 90.385 -5.349)" gradientUnits="userSpaceOnUse" r="152.423"><stop offset="0" stop-color="#e4936b"/><stop offset=".2873" stop-color="#e27d47"/><stop offset=".3714" stop-color="#dd7c48"/><stop offset=".4656" stop-color="#d0784c"/><stop offset=".5649" stop-color="#b97351"/><stop offset=".6676" stop-color="#9a6b59"/><stop offset=".772" stop-color="#726163"/><stop offset=".7999" stop-color="#665e66"/></radialGradient><radialGradient id="SVGID_22_" cx="171.157" cy="224.911" gradientTransform="matrix(.905 .426 -.329 .697 90.292 -4.936)" gradientUnits="userSpaceOnUse" r="127.367"><stop offset="0" stop-color="#fff9e2"/><stop offset=".1512" stop-color="#f2c29d"/><stop offset=".2983" stop-color="#e6905f"/><stop offset=".3679" stop-color="#e27d47"/><stop offset=".5065" stop-color="#e27d47"/><stop offset=".5228" stop-color="#e27d47"/><stop offset=".5909" stop-color="#da7c4a"/><stop offset=".6953" stop-color="#c57954"/><stop offset=".8229" stop-color="#a27464"/><stop offset=".959" stop-color="#756e78"/></radialGradient><radialGradient id="SVGID_23_" cx="258.327" cy="242.149" gradientTransform="matrix(-.572 -.82 1.176 -.821 121.431 652.75)" gradientUnits="userSpaceOnUse" r="115.856"><stop offset="0" stop-color="#e4936b"/><stop offset=".3445" stop-color="#e27d47"/><stop offset=".5051" stop-color="#e0693b"/><stop offset=".7114" stop-color="#dd542e"/><stop offset=".7759" stop-color="#c75638"/><stop offset=".9093" stop-color="#8f5b53"/><stop offset="1" stop-color="#665e66"/></radialGradient><radialGradient id="SVGID_24_" cx="277.455" cy="241.709" gradientTransform="matrix(-.572 -.82 1.176 -.821 152.026 667.632)" gradientUnits="userSpaceOnUse" r="104.346"><stop offset="0" stop-color="#ffecd0"/><stop offset=".0581" stop-color="#fadbbd"/><stop offset=".1754" stop-color="#edb08c"/><stop offset=".247" stop-color="#e4936b"/><stop offset=".25" stop-color="#e49269"/><stop offset=".307" stop-color="#e07b4e"/><stop offset=".3575" stop-color="#de6e3e"/><stop offset=".3959" stop-color="#dd6938"/><stop offset=".5229" stop-color="#dd5c32"/><stop offset=".6471" stop-color="#dd542e"/><stop offset=".7995" stop-color="#a35949"/><stop offset=".9327" stop-color="#775d5e"/><stop offset="1" stop-color="#665e66"/></radialGradient><radialGradient id="SVGID_25_" cx="189.132" cy="357.041" gradientTransform="matrix(.703 -.712 .549 .542 -139.644 298.165)" gradientUnits="userSpaceOnUse" r="16.511" xlink:href="#lg3"/><radialGradient id="SVGID_26_" cx="327.767" cy="357.041" gradientTransform="matrix(.703 -.712 .549 .542 -98.425 396.805)" gradientUnits="userSpaceOnUse" r="16.511" xlink:href="#lg3"/><radialGradient id="SVGID_27_" cx="10.611" cy="160.68" gradientUnits="userSpaceOnUse" r="104.609"><stop offset="0" stop-color="#a2847d"/><stop offset=".1235" stop-color="#b79a93"/><stop offset=".3336" stop-color="#d4b9b2"/><stop offset=".5378" stop-color="#ead0c8"/><stop offset=".7315" stop-color="#f7ddd5"/><stop offset=".9037" stop-color="#fbe2da"/></radialGradient><radialGradient id="SVGID_28_" cx="86.282" cy="192.708" gradientTransform="matrix(.821 -.572 .341 .489 -50.209 147.721)" gradientUnits="userSpaceOnUse" r="83.901"><stop offset=".4565" stop-color="#e27d47"/><stop offset=".8369" stop-color="#df6136"/><stop offset=".9879" stop-color="#dd542e"/></radialGradient><radialGradient id="SVGID_29_" cx="70.894" cy="111.671" gradientUnits="userSpaceOnUse" r="81.45"><stop offset="0" stop-color="#dddaec"/><stop offset=".2119" stop-color="#9894a1"/><stop offset=".3814" stop-color="#67626c"/><stop offset=".4636" stop-color="#544f57"/><stop offset=".8205" stop-color="#454045"/></radialGradient><radialGradient id="SVGID_30_" cx="100.695" cy="147.859" gradientUnits="userSpaceOnUse" r="27.727" xlink:href="#lg1"/><g><path d="m258.965 396.21c123.525 0 223.662-12.268 223.662-27.402h-447.323c0 15.134 100.136 27.402 223.661 27.402z" fill="url(#SVGID_1_)"/><path d="m56.276 118.594v-.562c0-1.764 1.946-2.835 3.437-1.891 9.646 6.112 16.29 15.788 18.657 26.71.999 4.607-2.6 8.94-7.315 8.94z" fill="url(#SVGID_2_)"/><path d="m56.276 118.594v21.375c0 6.529 5.292 11.821 11.821 11.821v-12.879c0-7.987-4.088-15.417-10.835-19.692z" fill="url(#SVGID_3_)"/><path d="m84.402 135.89h-20.316c-11.303 0-22.07 4.815-29.606 13.238-2.07 2.314-3.214 5.309-3.214 8.414 0 1.538-.276 3.035-.792 4.431l55.87 6.398z" fill="url(#SVGID_4_)"/><path d="m30.473 161.973c-1.088 2.946-3.243 5.443-6.126 6.934l-20.426 10.561c-2.039 1.054-3.331 2.905-3.761 4.934l88.124 3.655-1.94-26.083h-55.871z" fill="url(#SVGID_5_)"/><path d="m428.714 320.055.002.002c21.779 21.779 57.09 21.779 78.869 0l4.416-4.415-40.8-40.8-40.413 10.219c-.001-.001-2.073 34.995-2.074 34.994z" fill="url(#SVGID_6_)"/><path d="m471.2 274.841-79.888-79.887c-21.04-21.04-49.577-32.861-79.333-32.861h-17.843l20.465 43.85 114.112 114.112c5.154-21.554 21.464-38.773 42.487-45.214z" fill="url(#SVGID_7_)"/><path d="m152.331 200.104c-13.952 0-25.263 11.31-25.263 25.263v14.45c0 8.286 2.668 15.947 7.19 22.173 10.357 14.26 17.174 30.776 18.861 48.319l5.626 58.499h18.848v-143.442c.001-13.952-11.31-25.262-25.262-25.262z" fill="url(#SVGID_8_)"/><path d="m327.667 311.852-15.261 56.956h-22.334l13.394-49.988z" fill="url(#SVGID_9_)"/><path d="m327.667 311.852-11.594-20.081c-2.767-4.793-4.224-10.229-4.224-15.763v-33.646c0-19.973-16.192-36.165-36.165-36.165-16.602 0-30.061 13.459-30.061 30.061 0 16.514 8.305 31.088 20.967 39.773 13.811 9.474 25.024 22.263 33.398 36.767l3.476 6.021h.986c8.256.001 16.328-2.422 23.217-6.967z" fill="url(#SVGID_10_)"/><path d="m158.833 355.012h2.061c3.984 0 7.213 3.23 7.213 7.213v6.583h-21.022v-2.048c.001-6.488 5.26-11.748 11.748-11.748z" fill="url(#SVGID_11_)"/><path d="m297.468 355.012h2.061c3.984 0 7.213 3.23 7.213 7.213v6.583h-21.022v-2.048c0-6.488 5.26-11.748 11.748-11.748z" fill="url(#SVGID_12_)"/><path d="m367.57 311.852-15.261 56.956h-22.335l13.395-49.988z" fill="url(#SVGID_13_)"/><path d="m343.369 318.82-13.394 49.988h9.361l14.177-52.908z" fill="url(#SVGID_14_)"/><path d="m.159 184.402c-.455 2.146.054 4.492 1.663 6.309l7.132 8.058c3.25 3.671 7.803 5.8 12.568 6.033l.004.021h23.142l-1.307-4.249c7.893-1.648 23.15-4.941 23.15-4.941 1.614.473 22.826-.663 22.826-.663l-1.053-6.913c-6.607-2.395-13.639-3.655-20.802-3.655z" fill="url(#SVGID_15_)"/><path d="m16.733 183.381c0 1.78-4.088 5.265-6.877 5.265s-3.224-3.485-3.224-5.265 2.261-3.224 5.051-3.224 5.05 1.444 5.05 3.224z" fill="url(#SVGID_16_)"/><path d="m310.74 162.093h-101.057l-9.291-3.19c-8.95-3.073-18.346-4.641-27.809-4.641h-12.913l-19.252-9.326c-12.287-5.952-25.762-9.044-39.415-9.044l-10.193 42.015-3.597 14.826 79.759 61.083v-.002c5.308 6.364-1.106 10.435 7.813 10.501.074.001.148.002.222.002h133.671c28.798 0 52.143-23.345 52.143-52.143 0-27.659-22.422-50.081-50.081-50.081z" fill="url(#SVGID_17_)"/><path d="m112.646 199.586c.168-.216.331-.438.49-.663.825-1.173 1.515-2.468 2.037-3.871l.866-2.324-1.066-1.459c-6.509-8.91-10.016-19.658-10.016-30.691v-20.734h-4.913l-9.235 38.063-3.597 14.826 14.218 13.284c4.407-.588 8.458-2.889 11.216-6.431z" fill="url(#SVGID_18_)"/><path d="m188.174 253.814-.001.002-94.385-88.185-2.979 12.277-3.597 14.826 65.378 61.083.001-.002c5.308 6.364 13.274 10.435 22.193 10.501.074.001.148.002.222.002h35.583c-.074 0-.148-.001-.222-.002-8.919-.067-16.884-4.138-22.193-10.502z" fill="url(#SVGID_19_)"/><path d="m112.646 199.586c.168-.216.331-.438.49-.663.825-1.173 1.515-2.468 2.037-3.871l.866-2.324-1.066-1.459c-2.702-3.698-4.886-7.713-6.517-11.934l-14.669-13.705-2.979 12.277-3.597 14.826 14.218 13.284c4.408-.588 8.459-2.889 11.217-6.431z" fill="url(#SVGID_20_)"/><path d="m192.234 200.104c-13.952 0-25.263 11.31-25.263 25.263v14.45c0 8.286 2.668 15.947 7.19 22.173 10.357 14.26 17.174 30.776 18.861 48.319l5.626 58.499h18.848v-143.442c0-13.952-11.31-25.262-25.262-25.262z" fill="url(#SVGID_21_)"/><path d="m183.523 261.99c-4.523-6.227-7.19-13.888-7.19-22.174v-14.45c0-12.353 8.866-22.634 20.582-24.829-1.517-.284-3.081-.433-4.681-.433-13.952 0-25.263 11.31-25.263 25.263v14.45c0 8.286 2.668 15.947 7.19 22.174 10.357 14.26 17.174 30.776 18.861 48.319l5.626 58.499h9.362l-5.626-58.499c-1.687-17.544-8.504-34.061-18.861-48.32z" fill="url(#SVGID_22_)"/><path d="m367.57 311.852-11.594-20.081c-2.767-4.793-4.224-10.229-4.224-15.763v-33.646c0-19.973-16.192-36.165-36.165-36.165-16.602 0-30.061 13.459-30.061 30.061 0 16.514 8.305 31.088 20.967 39.773 13.811 9.474 25.024 22.263 33.398 36.767l3.476 6.021h.986c8.255.001 16.328-2.422 23.217-6.967z" fill="url(#SVGID_23_)"/><path d="m352.374 312.799c-8.374-14.504-19.587-27.293-33.398-36.767-12.662-8.685-20.967-23.259-20.967-39.773 0-14.565 10.359-26.711 24.111-29.472-2.119-.387-4.302-.589-6.533-.589-16.602 0-30.061 13.459-30.061 30.061 0 16.514 8.305 31.088 20.967 39.773 13.811 9.474 25.024 22.263 33.398 36.767l3.476 6.021h.986c3.63 0 7.225-.469 10.699-1.38z" fill="url(#SVGID_24_)"/><path d="m198.736 355.012h2.061c3.984 0 7.213 3.23 7.213 7.213v6.583h-21.022v-2.048c.001-6.488 5.26-11.748 11.748-11.748z" fill="url(#SVGID_25_)"/><path d="m337.37 355.012h2.061c3.984 0 7.213 3.23 7.213 7.213v6.583h-21.022v-2.048c.001-6.488 5.26-11.748 11.748-11.748z" fill="url(#SVGID_26_)"/><path d="m87.213 169.127-63.811 15.275c-.455 2.146.054 4.492 1.663 6.309l7.132 8.058c4.335 4.897 10.99 7.05 17.371 5.619l16.328-3.661c8.111-1.819 16.551-1.546 24.527.793 6.88 2.018 14.072-.497 18.269-5.887.168-.216.331-.438.49-.663z" fill="url(#SVGID_27_)"/><path d="m100.815 188.913 8.368 6.057c.825-1.173 1.515-2.468 2.037-3.871l.866-2.324-1.066-1.459c-6.509-8.91-10.016-19.658-10.016-30.691v-20.735h-13.675c-11.44 0-22.331 4.932-29.879 13.546-1.974 2.253-2.929 5.165-2.942 8.161-.02 4.762-2.685 9.121-6.918 11.309l-20.427 10.561c-2.039 1.054-3.331 2.905-3.761 4.934l36.974-5.412c14.257-2.086 28.766 1.474 40.439 9.924z" fill="url(#SVGID_28_)"/><path d="m99.033 151.79-11.821-33.196v-.562c0-1.764 1.946-2.835 3.437-1.891 9.646 6.112 16.29 15.788 18.657 26.71.999 4.607-2.6 8.94-7.315 8.94h-2.958z" fill="url(#SVGID_29_)"/><path d="m87.213 118.594v21.375c0 6.529 5.292 11.821 11.821 11.821v-11.711c-.001-8.713-4.461-16.821-11.821-21.485z" fill="url(#SVGID_30_)"/></g></svg>