<svg height="512" viewBox="0 0 128 128" width="512" xmlns="http://www.w3.org/2000/svg"><g><path d="m81.085 34.081a9.592 9.592 0 0 0 0-13.562l-6.059-6.058a15.592 15.592 0 0 0 -22.052 0l-6.059 6.058a9.592 9.592 0 0 0 0 13.562 9.59 9.59 0 0 1 0 13.562l-3.69 3.69a19.745 19.745 0 0 0 0 27.924l13.994 13.994a9.592 9.592 0 0 0 13.562 0l13.994-13.994a19.745 19.745 0 0 0 0-27.924l-3.69-3.69a9.59 9.59 0 0 1 0-13.562z" fill="#77bc4d"/><path d="m46.045 21.537a9.66 9.66 0 0 1 .87-1.018l6.059-6.058a15.586 15.586 0 0 1 2.4-1.965 6.5 6.5 0 1 0 -9.33 9.041z" fill="#6d4c41"/><path d="m81.955 21.537a9.66 9.66 0 0 0 -.87-1.018l-6.059-6.058a15.586 15.586 0 0 0 -2.4-1.965 6.5 6.5 0 1 1 9.33 9.041z" fill="#6d4c41"/><g fill="#479838"><path d="m57.7 34.019a6.111 6.111 0 0 1 -5.89-6.3 1.75 1.75 0 1 1 3.5 0 2.621 2.621 0 0 0 2.39 2.8 1.75 1.75 0 0 1 0 3.5z"/><path d="m73.161 57.123a1.767 1.767 0 0 1 -.352-.036 1.749 1.749 0 0 1 -1.364-2.064 5.321 5.321 0 0 0 -4.142-6.27 1.749 1.749 0 1 1 .7-3.428 8.821 8.821 0 0 1 6.869 10.4 1.749 1.749 0 0 1 -1.711 1.398z"/><path d="m61.188 79.362a9.385 9.385 0 0 1 -9.375-9.375 1.75 1.75 0 0 1 3.5 0 5.881 5.881 0 0 0 5.875 5.875 1.75 1.75 0 1 1 0 3.5z"/><path d="m118.57 23.534a3.026 3.026 0 0 0 -3.653-2.053 1.487 1.487 0 0 1 -1.639-2.232l1.969-3.109a2.852 2.852 0 0 0 -1-4.027 3 3 0 0 0 -4.14.929l-.637.854a3.473 3.473 0 0 1 -6.007-.782 3.113 3.113 0 0 0 -3.813-1.88 3 3 0 0 0 -1.817 3.958l3.051 7.6-3.867 4.294a23.531 23.531 0 0 1 -16.647 7.8 9.586 9.586 0 0 0 -1.19 10.019 33.467 33.467 0 0 0 25.267-11.126l3.907-4.338 8.112-2.163a2.991 2.991 0 0 0 2.104-3.744z"/><path d="m9.43 23.534a3.026 3.026 0 0 1 3.653-2.053 1.487 1.487 0 0 0 1.639-2.232l-1.969-3.109a2.851 2.851 0 0 1 1-4.027 3 3 0 0 1 4.14.929l.637.854a3.473 3.473 0 0 0 6.007-.782 3.113 3.113 0 0 1 3.813-1.88 3 3 0 0 1 1.817 3.958l-3.051 7.6 3.867 4.294a23.531 23.531 0 0 0 16.647 7.8 9.586 9.586 0 0 1 1.19 10.019 33.467 33.467 0 0 1 -25.267-11.126l-3.907-4.338-8.112-2.163a2.991 2.991 0 0 1 -2.104-3.744z"/><path d="m31.806 92.568 13.748-10.982-2.329-2.329a19.662 19.662 0 0 1 -3.868-5.522l-16.657 13.308a6.015 6.015 0 0 0 -1.242 8.05l4.63 6.9-21.525-.2a2.813 2.813 0 0 0 -2.809 2.964 2.921 2.921 0 0 0 2.968 2.662h.754a2.245 2.245 0 0 1 2.223 1.69 2.177 2.177 0 0 1 -1.868 2.643l-1.6.187a2.814 2.814 0 0 0 -2.485 2.794v.552a2.814 2.814 0 0 0 3.663 2.682l23.08-7.311a20.663 20.663 0 0 0 5.257-2.531 7.055 7.055 0 0 0 1.93-9.787z"/><path d="m96.194 92.568-13.748-10.982 2.329-2.329a19.662 19.662 0 0 0 3.868-5.522l16.657 13.308a6.015 6.015 0 0 1 1.242 8.05l-4.63 6.9 21.525-.2a2.813 2.813 0 0 1 2.809 2.964 2.921 2.921 0 0 1 -2.968 2.662h-.754a2.244 2.244 0 0 0 -2.223 1.69 2.177 2.177 0 0 0 1.868 2.643l1.6.187a2.814 2.814 0 0 1 2.485 2.794v.552a2.814 2.814 0 0 1 -3.663 2.682l-23.08-7.311a20.663 20.663 0 0 1 -5.257-2.531 7.055 7.055 0 0 1 -1.93-9.787z"/></g></g></svg>