<svg id="Capa_1" enable-background="new 0 0 512 512" height="512" viewBox="0 0 512 512" width="512" xmlns="http://www.w3.org/2000/svg"><g><path d="m424.766 193.196-4.103 2.721s-8.119 32.563-40.827 51.364-62.068 16.998-62.068 16.998l31.678 30.384h6.3c40.125-12.014 69.369-49.211 69.369-93.245 0-2.77-.122-5.511-.349-8.222z" fill="#f99a91"/><path d="m455.538 42.689c-4.523-9.211-15.657-13.012-24.869-8.487-26.289 12.911-41.733 30.565-47.215 53.971-4.539 19.38-1.296 38.787 1.841 57.556 6.123 36.641 7.833 56.563-24.074 73.776-18.533 9.997-35.476 12.341-51.801 7.164-3.988-1.265-7.78-2.935-11.371-4.89l-5.693 4.64 6.353 23.007 23.213 18.837 2.515-1.773c18.736.413 37.014-4.885 54.428-14.279 25.277-13.637 40.055-31.716 45.178-55.273 4.233-19.464 1.016-38.716-2.096-57.334-6.229-37.272-7.764-55.905 25.104-72.046 9.211-4.525 13.011-15.658 8.487-24.869z" fill="#f87c68"/><g><path d="m357.273 245.342c25.277-13.637 40.055-31.716 45.178-55.273 4.233-19.464 1.016-38.716-2.096-57.334-6.229-37.272-7.764-55.905 25.104-72.046 9.21-4.524 13.01-15.657 8.487-24.868-.419-.853-.911-1.642-1.436-2.4 8.808-3.216 18.803.663 23.029 9.268 4.523 9.211.723 20.345-8.487 24.868-32.868 16.142-31.333 34.774-25.104 72.046 3.112 18.618 6.329 37.87 2.096 57.334-5.123 23.557-19.901 41.636-45.178 55.273-17.414 9.394-35.692 14.693-54.428 14.279l-2.515 1.773-10.889-8.836c15.874-1.043 31.372-6.063 46.239-14.084z" fill="#ec625e"/></g><path d="m488.016 298.745-6.45 2.104c-45.07 62.583-126.023 30.39-126.023 30.39l-2.233 26.344 2.233 4.204c-.067.205-.127.405-.193.609 12.38 5.994 26.272 9.357 40.95 9.357 44.025 0 80.966-30.246 91.233-71.085.4-1.245.483-1.923.483-1.923z" fill="#f99a91"/><path d="m506.206 172.289c-7.124-6.332-18.033-5.689-24.365 1.436-14.037 15.795-14.745 37.958-15.429 59.391-1.229 38.484-4.064 62.636-45.082 73.761-26.374 7.154-52.746-.167-78.378-21.76-3.327-2.803-6.434-5.682-9.312-8.542v6.675l21.709 52.151h3.905c22.263 9.186 46.256 11.533 71.111 4.79 97.347-26.404 58.428-122.329 77.276-143.537 6.333-7.125 5.689-18.034-1.435-24.365z" fill="#f87c68"/><path d="m416.81 328.122c97.348-26.404 58.428-122.329 77.276-143.537 4.113-4.628 5.265-10.849 3.626-16.379 3.055.531 6.006 1.872 8.494 4.083 7.125 6.332 7.768 17.24 1.436 24.365-18.848 21.208 20.072 117.133-77.276 143.537-24.855 6.743-48.849 4.396-71.112-4.79h-3.905l-4.151-9.972c20.698 7.395 42.789 8.884 65.612 2.693z" fill="#ec625e"/><path d="m87.234 193.196 4.103 2.721s8.119 32.563 40.827 51.364 62.068 16.998 62.068 16.998l-31.678 30.384h-6.3c-40.124-12.014-69.369-49.211-69.369-93.245 0-2.77.122-5.511.349-8.222z" fill="#f99a91"/><path d="m56.462 42.689c4.523-9.211 15.657-13.012 24.869-8.487 26.289 12.911 41.733 30.565 47.215 53.971 4.539 19.38 1.296 38.787-1.841 57.556-6.123 36.641-7.833 56.563 24.074 73.776 18.533 9.997 35.476 12.341 51.801 7.164 3.988-1.265 7.78-2.935 11.371-4.89l5.693 4.64-6.353 23.007-23.213 18.837-2.515-1.773c-18.736.413-37.014-4.885-54.428-14.279-25.277-13.637-40.055-31.716-45.178-55.273-4.233-19.464-1.016-38.716 2.096-57.334 6.229-37.272 7.764-55.905-25.104-72.046-9.211-4.525-13.011-15.658-8.487-24.869z" fill="#f87c68"/><g><path d="m154.727 245.342c-25.277-13.637-40.055-31.716-45.178-55.273-4.233-19.464-1.016-38.716 2.096-57.334 6.229-37.272 7.764-55.905-25.104-72.046-9.21-4.524-13.01-15.657-8.487-24.868.419-.853.911-1.642 1.436-2.4-8.808-3.216-18.803.663-23.029 9.268-4.523 9.211-.723 20.345 8.487 24.868 32.868 16.142 31.333 34.774 25.104 72.046-3.112 18.618-6.329 37.87-2.096 57.334 5.123 23.557 19.901 41.636 45.178 55.273 17.414 9.394 35.692 14.693 54.428 14.279l2.515 1.773 10.889-8.836c-15.874-1.043-31.372-6.063-46.239-14.084z" fill="#ec625e"/></g><path d="m23.984 298.745 6.45 2.104c45.07 62.583 126.023 30.39 126.023 30.39l2.233 26.344-2.233 4.204c.067.205.127.405.193.609-12.38 5.994-26.272 9.357-40.95 9.357-44.025 0-80.966-30.246-91.233-71.085-.4-1.245-.483-1.923-.483-1.923z" fill="#f99a91"/><path d="m5.794 172.289c7.124-6.332 18.033-5.689 24.365 1.436 14.037 15.795 14.745 37.958 15.429 59.391 1.229 38.484 4.064 62.636 45.082 73.761 26.374 7.154 52.746-.167 78.378-21.76 3.327-2.803 6.434-5.682 9.312-8.542v6.675l-21.709 52.151h-3.905c-22.263 9.186-46.256 11.533-71.111 4.79-97.347-26.404-58.428-122.329-77.276-143.537-6.333-7.125-5.689-18.034 1.435-24.365z" fill="#f87c68"/><path d="m95.19 328.122c-97.348-26.404-58.428-122.329-77.276-143.537-4.113-4.628-5.265-10.849-3.626-16.379-3.055.531-6.006 1.872-8.494 4.083-7.125 6.332-7.768 17.24-1.436 24.365 18.848 21.208-20.072 117.133 77.276 143.537 24.855 6.743 48.849 4.396 71.111-4.79h3.905l4.151-9.972c-20.697 7.395-42.788 8.884-65.611 2.693z" fill="#ec625e"/><g><g fill="#f99a91"><path d="m174.989 280.754h-.144v.188c.048-.062.096-.126.144-.188z"/><path d="m256 283.251c-51.466 0-64.085 53.054-64.085 53.054v21.279h2.909c13.22-24.243 35.695-40.212 61.176-40.212 25.48 0 47.955 15.969 61.175 40.212l2.481-8.745c.001-.001-12.19-65.588-63.656-65.588z"/></g></g><path d="m108.558 452.024c29.319-8.152 66.206-34.585 47.899-90.237-18.907-57.477 38.683-103.239 48.514-110.538 5.403-4.011 9.554-9.735 10.117-16.429.668-7.942-1.092-14.466-3.621-19.568-1.85-3.732-5.064-6.668-8.976-8.1-10.229-3.744-17.367-13.484-17.36-25.09.004-7.104 2.782-13.556 7.308-18.338 3.801-4.016 4.936-9.827 2.991-15.003-3.931-10.461-6.125-22.114-6.125-34.399 0-45.303 29.905-82.029 66.695-82.029s66.695 36.726 66.695 82.029c0 12.285-2.194 23.937-6.125 34.399-1.945 5.176-.81 10.988 2.991 15.004 4.526 4.782 7.304 11.234 7.308 18.337.007 11.606-7.131 21.346-17.36 25.09-3.912 1.432-7.126 4.368-8.976 8.1-2.529 5.101-4.289 11.626-3.621 19.568.564 6.702 4.722 12.424 10.117 16.429 9.831 7.298 67.421 53.061 48.514 110.538-18.307 55.653 18.58 82.085 47.899 90.237 6.107 1.698 10.625 7.063 10.73 13.401.152 9.204-8.413 16.035-17.318 13.882-31.763-7.681-94.965-31.081-82.183-94.19 6.367-31.437-.069-54.164-9.252-69.75-10.284-17.453-29.162-28.03-49.419-28.03-20.258 0-39.136 10.577-49.42 28.03-9.183 15.585-15.619 38.313-9.252 69.75 12.782 63.109-50.42 86.509-82.183 94.19-8.905 2.153-17.47-4.678-17.318-13.882.106-6.338 4.624-11.703 10.731-13.401z" fill="#f87c68"/><g><path d="m124.959 465.425c.105-6.338 4.623-11.703 10.73-13.401 29.319-8.152 66.206-34.585 47.899-90.237-18.907-57.477 38.683-103.239 48.514-110.538 5.403-4.011 9.554-9.735 10.117-16.429.668-7.942-1.092-14.466-3.621-19.568-1.85-3.732-5.064-6.668-8.976-8.1-10.229-3.744-17.367-13.484-17.361-25.09.004-7.104 2.782-13.556 7.308-18.338 3.801-4.016 4.936-9.827 2.991-15.003-3.931-10.461-6.125-22.114-6.125-34.399 0-39.58 22.828-72.609 53.129-80.324-4.381-1.115-8.918-1.705-13.565-1.705-36.79 0-66.695 36.726-66.695 82.029 0 12.285 2.194 23.937 6.125 34.399 1.945 5.176.81 10.987-2.991 15.003-4.526 4.782-7.304 11.234-7.308 18.338-.007 11.606 7.132 21.346 17.361 25.09 3.912 1.432 7.126 4.368 8.976 8.1 2.529 5.101 4.289 11.626 3.621 19.568-.563 6.694-4.714 12.417-10.117 16.429-9.831 7.298-67.421 53.061-48.514 110.538 18.307 55.653-18.581 82.085-47.899 90.237-6.107 1.698-10.625 7.063-10.73 13.401-.152 9.204 8.412 16.035 17.318 13.882 4.14-1.001 8.818-2.273 13.789-3.861-2.49-2.555-4.041-6.066-3.976-10.021z" fill="#ec625e"/></g><g><path d="m240.609 195.915c-2.557 0-5.059-1.268-6.531-3.585-1.146-1.805-3.093-2.882-5.21-2.882s-4.064 1.077-5.21 2.882c-2.287 3.602-7.061 4.671-10.664 2.381-3.603-2.287-4.669-7.061-2.382-10.663 3.996-6.295 10.821-10.053 18.256-10.053s14.259 3.758 18.256 10.053c2.287 3.602 1.22 8.377-2.382 10.663-1.283.816-2.717 1.204-4.133 1.204z" fill="#477b9e"/></g><g><path d="m288.341 192.33c-1.146-1.805-3.093-2.882-5.21-2.882-2.116 0-4.064 1.077-5.21 2.882-2.288 3.602-7.061 4.669-10.664 2.381-3.602-2.288-4.668-7.062-2.381-10.664 3.997-6.294 10.821-10.052 18.255-10.052 7.435 0 14.259 3.758 18.256 10.053 2.287 3.602 1.22 8.377-2.382 10.663-3.592 2.283-8.373 1.227-10.664-2.381z" fill="#477b9e"/></g></g></svg>