<svg height="512" viewBox="0 0 512 512" width="512" xmlns="http://www.w3.org/2000/svg"><g id="Flat"><path d="m376 16h16v40h-16z" fill="#f79d16"/><path d="m288.47 382.9 21.93 73.1 9.6 32h32l-8-32-32-128" fill="#f79d16"/><path d="m232 328a96.567 96.567 0 0 1 -28.284 68.284l-11.716 11.716 16 48 8 32h-32l-27.077-88 3.077-16v-56z" fill="#f79d16"/><path d="m391.62 52.57 3.63-5.45a16 16 0 0 1 13.31-7.12h23.44l-11.25 16.88a15.981 15.981 0 0 1 -10.51 6.87" fill="#f79d16"/><path d="m88 424h-16v-30.311a39.873 39.873 0 0 1 6.718-22.189l21.251-31.877a23.926 23.926 0 0 0 4.031-13.312v-38.311a32.036 32.036 0 0 1 32-32h32v16h-32a16.019 16.019 0 0 0 -16 16v38.311a39.873 39.873 0 0 1 -6.718 22.188l-21.251 31.877a23.926 23.926 0 0 0 -4.031 13.313z" fill="#92563a"/><path d="m424 80.68a15.321 15.321 0 0 1 -15.32 15.32h-32.68l-64 168v64l-24 56-8 104h-32l8-104 8-56h-56l-1.09 2.18a233.709 233.709 0 0 1 -27.23 42.33 233.421 233.421 0 0 1 -35.68 35.49v48l8 32h-40v-96l40-64v-51.34a48.014 48.014 0 0 1 35.37-46.31l4.63-1.26 26.32-7.18a55.9 55.9 0 0 0 33.24-25.18c1.37-2.28 2.75-4.57 4.06-6.76a55.947 55.947 0 0 1 23.03-21.3l.4-.19a54.468 54.468 0 0 0 24.98-25.67l40.5-78.81h-7.97a16 16 0 0 1 -13.31-7.12l-11.25-16.88h23.44a16 16 0 0 1 13.31 7.12l2.15 3.23 1.1-2.35h32l7.62 4.57 24.94 14.97a15.329 15.329 0 0 1 7.44 13.14z" fill="#ffb531"/><path d="m424 80.68a15.321 15.321 0 0 1 -15.32 15.32h-32.68l-64 168v64l-24 56-8 104h-32l8-104 8-56h-56l-1.09 2.18a233.709 233.709 0 0 1 -27.23 42.33 233.421 233.421 0 0 1 -35.68 35.49v48l8 32h-40v-96l40-64v-17.23c95.86-44.79 190.16-122.76 239.62-258.2l24.94 14.97a15.329 15.329 0 0 1 7.44 13.14z" fill="#ffa912"/><path d="m344 16h16v40h-16z" fill="#ffb531"/><g fill="#f98500"><path d="m288 232-16-8-16 8v16l16 8 16-8z"/><path d="m160 280v16l16 8 16-8v-16l-16-8z"/><path d="m346 141.5-16 8v16l16 8 .59-.29 10.05-26.39z"/><path d="m304 192v-16l-16-8-16 8v16l16 8z"/><path d="m288 280v16l16 8 8-4v-24l-8-4z"/><path d="m344 96-12.66-6.33-13.08 25.46 9.74 4.87 16-8z"/><path d="m136.76 352.38 15.24 7.62 16-8v-16l-16-8z"/><path d="m224 280v16l16 8 16-8v-16l-16-8z"/></g><path d="m368 64h16v16h-16z" fill="#92563a"/><path d="m224 220.03v27.97l-16 8-16-8v-18.91l26.32-7.18a55.537 55.537 0 0 0 5.68-1.88z" fill="#f98500"/><path d="m248 488h32l2.462-32h-32z" fill="#92563a"/><path d="m112 488h40l-8-32h-32z" fill="#92563a"/><path d="m310.4 456 9.6 32h32l-8-32z" fill="#92563a"/><path d="m184 488h32l-8-32h-33.846z" fill="#92563a"/></g></svg>