<svg id="Capa_1" enable-background="new 0 0 511.904 511.904" height="512" viewBox="0 0 511.904 511.904" width="512" xmlns="http://www.w3.org/2000/svg"><g><path d="m457.364 204.395c-7.436-6.071-18.605-3.682-22.901 4.911-.316.632-31.97 63.746-63.064 110.388-7.127 10.69 1.653 24.793 14.341 23.205 20.053-2.508 36.02 6.974 48.788 28.988 10.74 18.518 14.562 38.637 14.594 38.811 2.277 12.527 18.219 16.694 26.328 6.862 1.487-1.803 36.43-44.854 36.43-105.546-.001-62.4-52.289-105.802-54.516-107.619z" fill="#00a763"/><path d="m281.936 410.072c-.863-8.138-8.094-14.078-16.242-13.358-25.797 2.29-49.805-1.476-70.445-9.938-8.523-3.494-18.164 1.459-20.286 10.425-4.594 19.412-17.638 44.59-53.693 54.3-11.101 2.99-14.879 16.92-6.704 25.093 25.278 25.268 56.46 39.395 91.054 34.267 47.57-6.744 81.466-52.277 76.316-100.789z" fill="#00a763"/><path d="m495.77 16.131c-21.488-21.5-56.279-21.515-77.776-.005l-37.52 37.51c-5.856 5.855-5.859 15.359.001 21.216l56.567 56.558c5.853 5.854 15.357 5.857 21.213 0l37.511-37.51c21.496-21.485 21.51-56.276.004-77.769z" fill="#00ec89"/><path d="m495.759 93.905-37.5 37.51c-5.873 5.852-15.348 5.851-21.22 0l-28.28-28.28 87-87c21.497 21.476 21.521 56.27 0 77.77z" fill="#00a763"/><path d="m307.499 54.529c-1.817-2.226-45.219-54.514-107.62-54.514-60.691 0-103.743 34.942-105.546 36.429-9.779 8.067-5.699 23.996 6.835 26.323.201.037 20.321 3.858 38.838 14.599 22.014 12.768 31.496 28.727 28.988 48.788-1.597 12.779 12.616 21.401 23.205 14.341 46.642-31.094 109.757-62.749 110.389-63.065 8.585-4.293 10.986-15.459 4.911-22.901z" fill="#00ec89"/><path d="m125.118 316.645c-8.495-20.723-12.22-44.748-9.938-70.444.724-8.152-5.22-15.379-13.358-16.243-45.21-4.799-91.583 24.588-100.774 73.853-.149.793-.354 1.879-.479 3.165-3.309 34.109 8.052 63.664 34.731 90.353 8.145 8.148 22.095 4.428 25.092-6.704 9.709-36.055 34.888-49.1 54.3-53.694 8.966-2.121 13.921-11.761 10.426-20.286z" fill="#00ec89"/><path d="m466.889 268.165c-50.99 145.71-235.82 210.5-334.71 112.16-24.491-24.476-40.983-56.465-46.1-95.22-8.04-61.44 15.13-130.58 67.56-183.03 79.31-79.24 204.03-95.71 277.96-21.78 48.67 48.64 58.47 121.62 35.29 187.87z" fill="#ffb454"/><path d="m466.889 268.165c-50.99 145.71-235.82 210.5-334.71 112.16-.475-.474-14.581 13.971 299.42-300.03 48.67 48.64 58.47 121.62 35.29 187.87z" fill="#ff7d47"/><path d="m477.059 172.815c-11.577-82.011-81.545-148.589-182.76-138.96-107.19 10.19-199.57 103.1-209 209.69-8.843 99.588 57.606 173.591 144.28 182.71 136.17 15.54 266.79-117.5 247.48-253.44zm-32.23-8.76-77.76 34.51-53.78-53.78 34.78-77.69c49.289 11.802 85.184 48.179 96.76 96.96zm-98.69 56.01-21.29 53.22-53.21 21.28c-33.77-33.782-20.093-20.102-54.37-54.38l21.28-53.21 53.21-21.28c34.277 34.277 20.597 20.599 54.38 54.37zm-29.13-157.01-32.84 73.36-53.55 21.42-44.79-44.79c36.32-31.67 83.45-51.3 131.18-49.99zm-152.4 71.2 44.8 44.79-21.28 53.21-73.6 29.34c-.2-46.95 19.37-92.18 50.08-127.34zm54.9 259.86c-53.563-11.258-90.816-50.232-101.71-101.52l78.24-31.2c32.743 32.742 20.193 20.195 54.62 54.61zm30.99 3.29 29.44-73.85 52.84-21.13 44.8 44.79c-35.18 30.77-80.36 50.48-127.08 50.19zm148.28-71.41-44.79-44.79 21.41-53.51 73.41-32.58c1.14 44.19-15.91 91.78-50.03 130.88z" fill="#ff7d47"/><path d="m477.059 172.815c-5.14-36.41-21.28-68.39-45.43-92.55l-21.24 21.24c16.74 16.75 28.65 38.15 34.44 62.55l-77.76 34.51-26.87-26.87-21.22 21.22 27.16 27.15-21.29 53.22-53.21 21.28-27.15-27.16-21.22 21.22 27.39 27.38-31.15 78.11c-26.74-5.62-49.22-18.07-66.42-35.31l-21.28 21.28c25.5 25.61 59.56 42.15 97.77 46.17 136.17 15.54 266.79-117.5 247.48-253.44zm-226.56 224.59 29.44-73.85 52.84-21.13 44.8 44.79c-35.18 30.77-80.36 50.48-127.08 50.19zm148.28-71.41-44.79-44.79 21.41-53.51 73.41-32.58c1.14 44.19-15.91 91.78-50.03 130.88z" fill="#ff3838"/></g></svg>